<mxfile host="app.diagrams.net" agent="Mozilla/5.0 (X11; Linux x86_64) AppleWebKit/537.36 (KHTML, like Gecko) Chrome/133.0.0.0 Safari/537.36" version="26.2.14">
  <diagram name="Page-1" id="xJE7kIpgzEs_ucVwuZ5W">
    <mxGraphModel dx="1354" dy="798" grid="1" gridSize="10" guides="1" tooltips="1" connect="1" arrows="1" fold="1" page="1" pageScale="1" pageWidth="850" pageHeight="1100" math="0" shadow="0">
      <root>
        <mxCell id="0" />
        <mxCell id="1" parent="0" />
        <mxCell id="ae6y2v7SYMP8b53Yx2Ix-1" value="" style="rounded=0;whiteSpace=wrap;html=1;strokeWidth=2;strokeColor=none;" parent="1" vertex="1">
          <mxGeometry x="40" y="200" width="600" height="120" as="geometry" />
        </mxCell>
        <mxCell id="ae6y2v7SYMP8b53Yx2Ix-17" value="" style="rounded=0;whiteSpace=wrap;html=1;strokeWidth=2;dashed=1;" parent="1" vertex="1">
          <mxGeometry x="39" y="199" width="561" height="91" as="geometry" />
        </mxCell>
        <mxCell id="ae6y2v7SYMP8b53Yx2Ix-26" value="" style="rounded=0;whiteSpace=wrap;html=1;strokeWidth=2;dashed=1;" parent="1" vertex="1">
          <mxGeometry x="696" y="199" width="565" height="91" as="geometry" />
        </mxCell>
        <mxCell id="ae6y2v7SYMP8b53Yx2Ix-28" value="MISC" style="rounded=1;whiteSpace=wrap;html=1;strokeWidth=2;fillColor=#d5e8d4;strokeColor=#82b366;align=left;" parent="1" vertex="1">
          <mxGeometry x="707" y="210" width="120" height="20" as="geometry" />
        </mxCell>
        <mxCell id="ae6y2v7SYMP8b53Yx2Ix-29" value="president" style="rounded=1;whiteSpace=wrap;html=1;align=left;fontSize=22;strokeWidth=2;fillColor=#d5e8d4;strokeColor=#82b366;" parent="1" vertex="1">
          <mxGeometry x="707" y="230" width="120" height="50" as="geometry" />
        </mxCell>
        <mxCell id="ae6y2v7SYMP8b53Yx2Ix-43" value="1" style="ellipse;whiteSpace=wrap;html=1;aspect=fixed;fontSize=32;strokeWidth=4;fontStyle=1;fillColor=#e3c800;strokeColor=#B09500;fontColor=#000000;" parent="1" vertex="1">
          <mxGeometry x="742" y="140" width="50" height="50" as="geometry" />
        </mxCell>
        <mxCell id="ae6y2v7SYMP8b53Yx2Ix-44" value="" style="rounded=0;whiteSpace=wrap;html=1;strokeWidth=2;dashed=1;" parent="1" vertex="1">
          <mxGeometry x="38" y="379" width="562" height="91" as="geometry" />
        </mxCell>
        <mxCell id="ae6y2v7SYMP8b53Yx2Ix-46" value="MISC" style="rounded=1;whiteSpace=wrap;html=1;strokeWidth=2;fillColor=#d5e8d4;strokeColor=#82b366;align=left;" parent="1" vertex="1">
          <mxGeometry x="49" y="390" width="120" height="20" as="geometry" />
        </mxCell>
        <mxCell id="ae6y2v7SYMP8b53Yx2Ix-47" value="president" style="rounded=1;whiteSpace=wrap;html=1;align=left;fontSize=22;strokeWidth=2;fillColor=#d5e8d4;strokeColor=#82b366;" parent="1" vertex="1">
          <mxGeometry x="49" y="410" width="120" height="50" as="geometry" />
        </mxCell>
        <mxCell id="ae6y2v7SYMP8b53Yx2Ix-48" value="ORG" style="rounded=1;whiteSpace=wrap;html=1;strokeWidth=2;fillColor=#f8cecc;strokeColor=#b85450;align=left;" parent="1" vertex="1">
          <mxGeometry x="179" y="390" width="390" height="20" as="geometry" />
        </mxCell>
        <mxCell id="ae6y2v7SYMP8b53Yx2Ix-49" value="LOC" style="rounded=1;whiteSpace=wrap;html=1;strokeWidth=2;fillColor=#dae8fc;strokeColor=#6c8ebf;align=left;" parent="1" vertex="1">
          <mxGeometry x="419" y="390" width="140" height="20" as="geometry" />
        </mxCell>
        <mxCell id="ae6y2v7SYMP8b53Yx2Ix-50" value="University of California," style="rounded=1;whiteSpace=wrap;html=1;align=left;fontSize=22;strokeWidth=2;fillColor=#f8cecc;strokeColor=#b85450;" parent="1" vertex="1">
          <mxGeometry x="179" y="410" width="390" height="50" as="geometry" />
        </mxCell>
        <mxCell id="ae6y2v7SYMP8b53Yx2Ix-51" value="&lt;div&gt;&lt;br&gt;&lt;/div&gt;Los Angeles&lt;div&gt;&lt;br&gt;&lt;/div&gt;" style="rounded=1;whiteSpace=wrap;html=1;align=left;fontSize=22;strokeWidth=2;fillColor=#dae8fc;strokeColor=#6c8ebf;" parent="1" vertex="1">
          <mxGeometry x="419" y="410" width="140" height="40" as="geometry" />
        </mxCell>
        <mxCell id="ae6y2v7SYMP8b53Yx2Ix-59" value="3" style="ellipse;whiteSpace=wrap;html=1;aspect=fixed;fontSize=32;strokeWidth=4;fontStyle=1;fillColor=#e3c800;strokeColor=#B09500;fontColor=#000000;" parent="1" vertex="1">
          <mxGeometry x="464" y="320" width="50" height="50" as="geometry" />
        </mxCell>
        <mxCell id="ae6y2v7SYMP8b53Yx2Ix-60" value="2" style="ellipse;whiteSpace=wrap;html=1;aspect=fixed;fontSize=32;strokeWidth=4;fontStyle=1;fillColor=#e3c800;strokeColor=#B09500;fontColor=#000000;" parent="1" vertex="1">
          <mxGeometry x="294" y="320" width="50" height="50" as="geometry" />
        </mxCell>
        <mxCell id="ae6y2v7SYMP8b53Yx2Ix-61" value="1" style="ellipse;whiteSpace=wrap;html=1;aspect=fixed;fontSize=32;strokeWidth=4;fontStyle=1;fillColor=#e3c800;strokeColor=#B09500;fontColor=#000000;" parent="1" vertex="1">
          <mxGeometry x="84" y="320" width="50" height="50" as="geometry" />
        </mxCell>
        <mxCell id="ae6y2v7SYMP8b53Yx2Ix-62" value="" style="rounded=0;whiteSpace=wrap;html=1;strokeWidth=2;dashed=1;" parent="1" vertex="1">
          <mxGeometry x="696" y="379.5" width="565" height="170.5" as="geometry" />
        </mxCell>
        <mxCell id="ae6y2v7SYMP8b53Yx2Ix-64" value="MISC" style="rounded=1;whiteSpace=wrap;html=1;strokeWidth=2;fillColor=#d5e8d4;strokeColor=#82b366;align=left;" parent="1" vertex="1">
          <mxGeometry x="707" y="390.5" width="120" height="20" as="geometry" />
        </mxCell>
        <mxCell id="ae6y2v7SYMP8b53Yx2Ix-65" value="president" style="rounded=1;whiteSpace=wrap;html=1;align=left;fontSize=22;strokeWidth=2;fillColor=#d5e8d4;strokeColor=#82b366;" parent="1" vertex="1">
          <mxGeometry x="707" y="410.5" width="120" height="49.5" as="geometry" />
        </mxCell>
        <mxCell id="ae6y2v7SYMP8b53Yx2Ix-66" value="ORG" style="rounded=1;whiteSpace=wrap;html=1;strokeWidth=2;fillColor=#f8cecc;strokeColor=#b85450;align=left;" parent="1" vertex="1">
          <mxGeometry x="837" y="390.5" width="390" height="20" as="geometry" />
        </mxCell>
        <mxCell id="ae6y2v7SYMP8b53Yx2Ix-67" value="LOC" style="rounded=1;whiteSpace=wrap;html=1;strokeWidth=2;fillColor=#dae8fc;strokeColor=#6c8ebf;align=left;" parent="1" vertex="1">
          <mxGeometry x="1077" y="390.5" width="140" height="20" as="geometry" />
        </mxCell>
        <mxCell id="ae6y2v7SYMP8b53Yx2Ix-68" value="University of California," style="rounded=1;whiteSpace=wrap;html=1;align=left;fontSize=22;strokeWidth=2;fillColor=#f8cecc;strokeColor=#b85450;" parent="1" vertex="1">
          <mxGeometry x="837" y="410.5" width="390" height="49.5" as="geometry" />
        </mxCell>
        <mxCell id="ae6y2v7SYMP8b53Yx2Ix-69" value="&lt;div&gt;&lt;br&gt;&lt;/div&gt;Los Angeles&lt;div&gt;&lt;br&gt;&lt;/div&gt;" style="rounded=1;whiteSpace=wrap;html=1;align=left;fontSize=22;strokeWidth=2;fillColor=#dae8fc;strokeColor=#6c8ebf;" parent="1" vertex="1">
          <mxGeometry x="1077" y="410" width="140" height="39.5" as="geometry" />
        </mxCell>
        <mxCell id="ae6y2v7SYMP8b53Yx2Ix-71" value="LOC" style="rounded=1;whiteSpace=wrap;html=1;strokeWidth=2;fillColor=#dae8fc;strokeColor=#6c8ebf;align=left;" parent="1" vertex="1">
          <mxGeometry x="707" y="470" width="150" height="20" as="geometry" />
        </mxCell>
        <mxCell id="ae6y2v7SYMP8b53Yx2Ix-72" value="Sillicon Valley" style="rounded=1;whiteSpace=wrap;html=1;align=left;fontSize=22;strokeWidth=2;fillColor=#dae8fc;strokeColor=#6c8ebf;" parent="1" vertex="1">
          <mxGeometry x="707" y="490" width="150" height="49.5" as="geometry" />
        </mxCell>
        <mxCell id="ae6y2v7SYMP8b53Yx2Ix-75" value="4" style="ellipse;whiteSpace=wrap;html=1;aspect=fixed;fontSize=32;strokeWidth=4;fontStyle=1;fillColor=#e3c800;strokeColor=#B09500;fontColor=#000000;" parent="1" vertex="1">
          <mxGeometry x="757" y="560" width="50" height="50" as="geometry" />
        </mxCell>
        <mxCell id="ae6y2v7SYMP8b53Yx2Ix-77" value="3" style="ellipse;whiteSpace=wrap;html=1;aspect=fixed;fontSize=32;strokeWidth=4;fontStyle=1;fillColor=#e3c800;strokeColor=#B09500;fontColor=#000000;" parent="1" vertex="1">
          <mxGeometry x="1122" y="320.5" width="50" height="50" as="geometry" />
        </mxCell>
        <mxCell id="ae6y2v7SYMP8b53Yx2Ix-78" value="2" style="ellipse;whiteSpace=wrap;html=1;aspect=fixed;fontSize=32;strokeWidth=4;fontStyle=1;fillColor=#e3c800;strokeColor=#B09500;fontColor=#000000;" parent="1" vertex="1">
          <mxGeometry x="952" y="320.5" width="50" height="50" as="geometry" />
        </mxCell>
        <mxCell id="ae6y2v7SYMP8b53Yx2Ix-79" value="1" style="ellipse;whiteSpace=wrap;html=1;aspect=fixed;fontSize=32;strokeWidth=4;fontStyle=1;fillColor=#e3c800;strokeColor=#B09500;fontColor=#000000;" parent="1" vertex="1">
          <mxGeometry x="742" y="320.5" width="50" height="50" as="geometry" />
        </mxCell>
        <mxCell id="ae6y2v7SYMP8b53Yx2Ix-80" value="" style="rounded=0;whiteSpace=wrap;html=1;strokeWidth=2;dashed=1;" parent="1" vertex="1">
          <mxGeometry x="1349" y="199.5" width="565" height="90" as="geometry" />
        </mxCell>
        <mxCell id="ae6y2v7SYMP8b53Yx2Ix-82" value="MISC" style="rounded=1;whiteSpace=wrap;html=1;strokeWidth=2;fillColor=#d5e8d4;strokeColor=#82b366;align=left;" parent="1" vertex="1">
          <mxGeometry x="1360" y="210" width="120" height="20" as="geometry" />
        </mxCell>
        <mxCell id="ae6y2v7SYMP8b53Yx2Ix-83" value="president" style="rounded=1;whiteSpace=wrap;html=1;align=left;fontSize=22;strokeWidth=2;fillColor=#d5e8d4;strokeColor=#82b366;" parent="1" vertex="1">
          <mxGeometry x="1360" y="230" width="120" height="49.5" as="geometry" />
        </mxCell>
        <mxCell id="ae6y2v7SYMP8b53Yx2Ix-84" value="ORG" style="rounded=1;whiteSpace=wrap;html=1;strokeWidth=2;fillColor=#f8cecc;strokeColor=#b85450;align=left;" parent="1" vertex="1">
          <mxGeometry x="1490" y="210" width="390" height="20" as="geometry" />
        </mxCell>
        <mxCell id="ae6y2v7SYMP8b53Yx2Ix-86" value="University of California, Los Angeles" style="rounded=1;whiteSpace=wrap;html=1;align=left;fontSize=22;strokeWidth=2;fillColor=#f8cecc;strokeColor=#b85450;" parent="1" vertex="1">
          <mxGeometry x="1490" y="230" width="390" height="49.5" as="geometry" />
        </mxCell>
        <mxCell id="ae6y2v7SYMP8b53Yx2Ix-96" value="2" style="ellipse;whiteSpace=wrap;html=1;aspect=fixed;fontSize=32;strokeWidth=4;fontStyle=1;fillColor=#e3c800;strokeColor=#B09500;fontColor=#000000;" parent="1" vertex="1">
          <mxGeometry x="1605" y="140" width="50" height="50" as="geometry" />
        </mxCell>
        <mxCell id="ae6y2v7SYMP8b53Yx2Ix-97" value="1" style="ellipse;whiteSpace=wrap;html=1;aspect=fixed;fontSize=32;strokeWidth=4;fontStyle=1;fillColor=#e3c800;strokeColor=#B09500;fontColor=#000000;" parent="1" vertex="1">
          <mxGeometry x="1395" y="140" width="50" height="50" as="geometry" />
        </mxCell>
        <mxCell id="ae6y2v7SYMP8b53Yx2Ix-98" value="" style="rounded=0;whiteSpace=wrap;html=1;strokeWidth=2;dashed=1;" parent="1" vertex="1">
          <mxGeometry x="1349" y="379.5" width="565" height="170" as="geometry" />
        </mxCell>
        <mxCell id="ae6y2v7SYMP8b53Yx2Ix-99" value="" style="rounded=0;whiteSpace=wrap;html=1;strokeWidth=2;strokeColor=none;" parent="1" vertex="1">
          <mxGeometry x="1350" y="380.5" width="554" height="120" as="geometry" />
        </mxCell>
        <mxCell id="ae6y2v7SYMP8b53Yx2Ix-100" value="MISC" style="rounded=1;whiteSpace=wrap;html=1;strokeWidth=2;fillColor=#d5e8d4;strokeColor=#82b366;align=left;" parent="1" vertex="1">
          <mxGeometry x="1360" y="390.5" width="120" height="20" as="geometry" />
        </mxCell>
        <mxCell id="ae6y2v7SYMP8b53Yx2Ix-101" value="president" style="rounded=1;whiteSpace=wrap;html=1;align=left;fontSize=22;strokeWidth=2;fillColor=#d5e8d4;strokeColor=#82b366;" parent="1" vertex="1">
          <mxGeometry x="1360" y="410.5" width="120" height="49" as="geometry" />
        </mxCell>
        <mxCell id="ae6y2v7SYMP8b53Yx2Ix-102" value="ORG" style="rounded=1;whiteSpace=wrap;html=1;strokeWidth=2;fillColor=#f8cecc;strokeColor=#b85450;align=left;" parent="1" vertex="1">
          <mxGeometry x="1490" y="390.5" width="390" height="20" as="geometry" />
        </mxCell>
        <mxCell id="ae6y2v7SYMP8b53Yx2Ix-103" value="LOC" style="rounded=1;whiteSpace=wrap;html=1;strokeWidth=2;fillColor=#dae8fc;strokeColor=#6c8ebf;align=left;" parent="1" vertex="1">
          <mxGeometry x="1730" y="390.5" width="140" height="20" as="geometry" />
        </mxCell>
        <mxCell id="ae6y2v7SYMP8b53Yx2Ix-104" value="University of California," style="rounded=1;whiteSpace=wrap;html=1;align=left;fontSize=22;strokeWidth=2;fillColor=#f8cecc;strokeColor=#b85450;" parent="1" vertex="1">
          <mxGeometry x="1490" y="410.5" width="390" height="49" as="geometry" />
        </mxCell>
        <mxCell id="ae6y2v7SYMP8b53Yx2Ix-105" value="&lt;div&gt;&lt;br&gt;&lt;/div&gt;Los Angeles&lt;div&gt;&lt;br&gt;&lt;/div&gt;" style="rounded=1;whiteSpace=wrap;html=1;align=left;fontSize=22;strokeWidth=2;fillColor=#dae8fc;strokeColor=#6c8ebf;" parent="1" vertex="1">
          <mxGeometry x="1730" y="409.5" width="140" height="39" as="geometry" />
        </mxCell>
        <mxCell id="ae6y2v7SYMP8b53Yx2Ix-107" value="LOC" style="rounded=1;whiteSpace=wrap;html=1;strokeWidth=2;fillColor=#dae8fc;strokeColor=#6c8ebf;align=left;" parent="1" vertex="1">
          <mxGeometry x="1360" y="470" width="150" height="20" as="geometry" />
        </mxCell>
        <mxCell id="ae6y2v7SYMP8b53Yx2Ix-108" value="Sillicon Valley" style="rounded=1;whiteSpace=wrap;html=1;align=left;fontSize=22;strokeWidth=2;fillColor=#dae8fc;strokeColor=#6c8ebf;" parent="1" vertex="1">
          <mxGeometry x="1360" y="490" width="150" height="49" as="geometry" />
        </mxCell>
        <mxCell id="ae6y2v7SYMP8b53Yx2Ix-109" value="DATE" style="rounded=1;whiteSpace=wrap;html=1;strokeWidth=2;fillColor=#ffe6cc;strokeColor=#d79b00;align=left;" parent="1" vertex="1">
          <mxGeometry x="1520" y="470" width="220" height="20" as="geometry" />
        </mxCell>
        <mxCell id="ae6y2v7SYMP8b53Yx2Ix-110" value="September 23, 2023" style="rounded=1;whiteSpace=wrap;html=1;align=left;fontSize=22;strokeWidth=2;fillColor=#ffe6cc;strokeColor=#d79b00;" parent="1" vertex="1">
          <mxGeometry x="1520" y="490" width="220" height="49" as="geometry" />
        </mxCell>
        <mxCell id="ae6y2v7SYMP8b53Yx2Ix-111" value="4" style="ellipse;whiteSpace=wrap;html=1;aspect=fixed;fontSize=32;strokeWidth=4;fontStyle=1;fillColor=#e3c800;strokeColor=#B09500;fontColor=#000000;" parent="1" vertex="1">
          <mxGeometry x="1410" y="559.5" width="50" height="50" as="geometry" />
        </mxCell>
        <mxCell id="ae6y2v7SYMP8b53Yx2Ix-112" value="5" style="ellipse;whiteSpace=wrap;html=1;aspect=fixed;fontSize=32;strokeWidth=4;fontStyle=1;fillColor=#e3c800;strokeColor=#B09500;fontColor=#000000;" parent="1" vertex="1">
          <mxGeometry x="1605" y="559.5" width="50" height="50" as="geometry" />
        </mxCell>
        <mxCell id="ae6y2v7SYMP8b53Yx2Ix-113" value="3" style="ellipse;whiteSpace=wrap;html=1;aspect=fixed;fontSize=32;strokeWidth=4;fontStyle=1;fillColor=#e3c800;strokeColor=#B09500;fontColor=#000000;" parent="1" vertex="1">
          <mxGeometry x="1775" y="320.5" width="50" height="50" as="geometry" />
        </mxCell>
        <mxCell id="ae6y2v7SYMP8b53Yx2Ix-114" value="2" style="ellipse;whiteSpace=wrap;html=1;aspect=fixed;fontSize=32;strokeWidth=4;fontStyle=1;fillColor=#e3c800;strokeColor=#B09500;fontColor=#000000;" parent="1" vertex="1">
          <mxGeometry x="1605" y="320.5" width="50" height="50" as="geometry" />
        </mxCell>
        <mxCell id="ae6y2v7SYMP8b53Yx2Ix-115" value="1" style="ellipse;whiteSpace=wrap;html=1;aspect=fixed;fontSize=32;strokeWidth=4;fontStyle=1;fillColor=#e3c800;strokeColor=#B09500;fontColor=#000000;" parent="1" vertex="1">
          <mxGeometry x="1395" y="320.5" width="50" height="50" as="geometry" />
        </mxCell>
        <mxCell id="ae6y2v7SYMP8b53Yx2Ix-117" value="" style="shape=flexArrow;endArrow=classic;html=1;rounded=0;width=36.55172413793104;endSize=13.765517241379312;fillColor=#0050ef;strokeColor=#001DBC;endWidth=41.419878296146045;" parent="1" edge="1">
          <mxGeometry width="50" height="50" relative="1" as="geometry">
            <mxPoint x="611" y="243.99999999999997" as="sourcePoint" />
            <mxPoint x="684" y="244.19999999999996" as="targetPoint" />
          </mxGeometry>
        </mxCell>
        <mxCell id="ae6y2v7SYMP8b53Yx2Ix-119" value="" style="shape=flexArrow;endArrow=classic;html=1;rounded=0;width=36.55172413793104;endSize=13.765517241379312;fillColor=#0050ef;strokeColor=#001DBC;endWidth=41.419878296146045;" parent="1" edge="1">
          <mxGeometry width="50" height="50" relative="1" as="geometry">
            <mxPoint x="1271" y="243.50000000000003" as="sourcePoint" />
            <mxPoint x="1344" y="243.69999999999996" as="targetPoint" />
          </mxGeometry>
        </mxCell>
        <mxCell id="ae6y2v7SYMP8b53Yx2Ix-120" value="" style="shape=flexArrow;endArrow=classic;html=1;rounded=0;width=36.55172413793104;endSize=13.765517241379312;fillColor=#0050ef;strokeColor=#001DBC;endWidth=41.419878296146045;" parent="1" edge="1">
          <mxGeometry width="50" height="50" relative="1" as="geometry">
            <mxPoint x="610" y="484.63" as="sourcePoint" />
            <mxPoint x="683" y="484.8299999999999" as="targetPoint" />
          </mxGeometry>
        </mxCell>
        <mxCell id="ae6y2v7SYMP8b53Yx2Ix-121" value="" style="shape=flexArrow;endArrow=classic;html=1;rounded=0;width=36.55172413793104;endSize=13.765517241379312;fillColor=#0050ef;strokeColor=#001DBC;endWidth=41.419878296146045;" parent="1" edge="1">
          <mxGeometry width="50" height="50" relative="1" as="geometry">
            <mxPoint x="1273" y="480.5" as="sourcePoint" />
            <mxPoint x="1346" y="480.70000000000005" as="targetPoint" />
          </mxGeometry>
        </mxCell>
        <mxCell id="CfElz5m0ySBTcXDRnpHu-9" value="" style="endArrow=baseDash;html=1;rounded=0;startArrow=baseDash;startFill=0;endFill=0;strokeWidth=2;" parent="1" edge="1">
          <mxGeometry width="50" height="50" relative="1" as="geometry">
            <mxPoint x="40" y="160" as="sourcePoint" />
            <mxPoint x="600" y="160" as="targetPoint" />
          </mxGeometry>
        </mxCell>
        <mxCell id="CfElz5m0ySBTcXDRnpHu-12" value="maxWidth" style="text;html=1;align=center;verticalAlign=middle;whiteSpace=wrap;rounded=0;strokeWidth=5;fontStyle=2;fontSize=20;fontFamily=Lucida Console;" parent="1" vertex="1">
          <mxGeometry x="270" y="120" width="100" height="30" as="geometry" />
        </mxCell>
        <mxCell id="CfElz5m0ySBTcXDRnpHu-13" value="" style="endArrow=baseDash;html=1;rounded=0;startArrow=baseDash;startFill=0;endFill=0;strokeWidth=2;" parent="1" edge="1">
          <mxGeometry width="50" height="50" relative="1" as="geometry">
            <mxPoint x="837" y="159.31" as="sourcePoint" />
            <mxPoint x="1261" y="160" as="targetPoint" />
          </mxGeometry>
        </mxCell>
        <mxCell id="CfElz5m0ySBTcXDRnpHu-14" value="remainingWidth" style="text;html=1;align=center;verticalAlign=middle;whiteSpace=wrap;rounded=0;strokeWidth=5;fontStyle=2;fontSize=20;fontFamily=Lucida Console;" parent="1" vertex="1">
          <mxGeometry x="980" y="120" width="151" height="30" as="geometry" />
        </mxCell>
      </root>
    </mxGraphModel>
  </diagram>
</mxfile>
